{
  "title": "Fifty Shades of Grey 2015 UNCUT HC HDRIP x264 AC3 TiTAN",
  "uid": 11738915,
  "size": 1588370679,
  "categoryP": "video",
  "categoryS": "movies",
  "magnet": "?xt=urn:btih:bff9e2f76c55da6cfec07acd6961be5607e09b6b&amp;dn=Fifty+Shades+of+Grey+2015+UNCUT+HC+HDRIP+x264+AC3+TiTAN&amp;tr=udp%3A%2F%2Ftracker.openbittorrent.com%3A80&amp;tr=udp%3A%2F%2Fopen.demonii.com%3A1337&amp;tr=udp%3A%2F%2Ftracker.coppersurfer.tk%3A6969&amp;tr=udp%3A%2F%2Fexodus.desync.com%3A6969",
  "seeders": 6021,
  "leechers": 443,
  "uploader": "xxxlavalxxx",
  "files": 3,
  "time": 1425673208,
  "description": " &lt;a href=&quot;http://www.imdb.com/title/tt2322441/&quot; rel=&quot;nofollow&quot; target=&quot;_NEW&quot;&gt;http://www.imdb.com/title/tt2322441/&lt;/a&gt;\n\nLiterature student Anastasia Steele's life changes forever when she meets handsome, yet tormented, billionaire Christian Grey.\n\nDirector: Sam Taylor-Johnson\nWriters: Kelly Marcel (screenplay), E.L. James (novel)\nStars: Dakota Johnson, Jamie Dornan, Jennifer Ehle\nGenres: Drama | Romance\nCountry: USA\nLanguage: English\n\nSource: R6 THX\n\nOK nice new source, it is complete from begining to end.. no editing of sex scenes, or cuts in audio-video. Unfortunately has the HC chinese subs. But other than that a perfect complete copy.. Enjoy\n\nGeneral\n\nFormat                                   : Matroska\nFormat version                           : Version 2\nFile size                                : 1.48 GiB\nDuration                                 : 2h 5mn\nOverall bit rate                         : 1 693 Kbps\nEncoded date                             : UTC 2015-03-06 17:46:58\n\nVideo\nID                                       : 1\nFormat                                   : AVC\nFormat/Info                              : Advanced Video Codec\nFormat profile                           : &lt;a class=&quot;__cf_email__&quot; href=&quot;/cdn-cgi/l/email-protection&quot; data-cfemail=&quot;1058797778505c243e21&quot;&gt;[email&amp;#160;protected]&lt;/a&gt;&lt;script cf-hash='f9e31' type=&quot;text/javascript&quot;&gt;\n/* &lt;![CDATA[ */!function(){try{var t=&quot;currentScript&quot;in document?document.currentScript:function(){for(var t=document.getElementsByTagName(&quot;script&quot;),e=t.length;e--;)if(t[e].getAttribute(&quot;cf-hash&quot;))return t[e]}();if(t&amp;&amp;t.previousSibling){var e,r,n,i,c=t.previousSibling,a=c.getAttribute(&quot;data-cfemail&quot;);if(a){for(e=&quot;&quot;,r=parseInt(a.substr(0,2),16),n=2;a.length-n;n+=2)i=parseInt(a.substr(n,2),16)^r,e+=String.fromCharCode(i);e=document.createTextNode(e),c.parentNode.replaceChild(e,c)}}}catch(u){}}();/* ]]&gt; */&lt;/script&gt;\nFormat settings, CABAC                   : Yes\nFormat settings, ReFrames                : 9 frames\nCodec ID                                 : V_MPEG4/ISO/AVC\nDuration                                 : 2h 5mn\nBit rate                                 : 1 500 Kbps\nWidth                                    : 720 pixels\nHeight                                   : 300 pixels\nDisplay aspect ratio                     : 2.40:1\nFrame rate mode                          : Constant\nFrame rate                               : 25.000 fps\nColor space                              : YUV\nChroma subsampling                       : 4:2:0\nBit depth                                : 8 bits\nScan type                                : Progressive\nBits/(Pixel*Frame)                       : 0.278\nStream size                              : 1.28 GiB (87%)\nDefault                                  : Yes\nForced                                   : No\n\nAudio\nID                                       : 2\nFormat                                   : AC-3\nFormat/Info                              : Audio Coding 3\nMode extension                           : CM (complete main)\nFormat settings, Endianness              : Big\nCodec ID                                 : A_AC3\nDuration                                 : 2h 5mn\nBit rate mode                            : Constant\nBit rate                                 : 192 Kbps\nChannel(s)                               : 2 channels\nChannel positions                        : Front: L R\nSampling rate                            : 48.0 KHz\nBit depth                                : 16 bits\nCompression mode                         : Lossy\nStream size                              : 172 MiB (11%)\nDefault                                  : Yes\nForced                                   : No\n &lt;a href=&quot;\nhttp://i.imgur.com/A1VDcVJ.jpg&quot; rel=&quot;nofollow&quot; target=&quot;_NEW&quot;&gt;\nhttp://i.imgur.com/A1VDcVJ.jpg&lt;/a&gt; &lt;a href=&quot;\nhttp://i.imgur.com/rTCeXge.jpg&quot; rel=&quot;nofollow&quot; target=&quot;_NEW&quot;&gt;\nhttp://i.imgur.com/rTCeXge.jpg&lt;/a&gt; &lt;a href=&quot;\nhttp://i.imgur.com/sIaRpeH.jpg&quot; rel=&quot;nofollow&quot; target=&quot;_NEW&quot;&gt;\nhttp://i.imgur.com/sIaRpeH.jpg&lt;/a&gt; &lt;a href=&quot;\nhttp://i.imgur.com/rjYhdpi.jpg&quot; rel=&quot;nofollow&quot; target=&quot;_NEW&quot;&gt;\nhttp://i.imgur.com/rjYhdpi.jpg&lt;/a&gt; &lt;a href=&quot;\nhttp://i.imgur.com/fCWnhgx.jpg&quot; rel=&quot;nofollow&quot; target=&quot;_NEW&quot;&gt;\nhttp://i.imgur.com/fCWnhgx.jpg&lt;/a&gt; &lt;a href=&quot;\nhttp://i.imgur.com/KEYZ8h6.jpg&quot; rel=&quot;nofollow&quot; target=&quot;_NEW&quot;&gt;\nhttp://i.imgur.com/KEYZ8h6.jpg&lt;/a&gt; &lt;a href=&quot;\nhttp://i.imgur.com/dSxZOYo.jpg&quot; rel=&quot;nofollow&quot; target=&quot;_NEW&quot;&gt;\nhttp://i.imgur.com/dSxZOYo.jpg&lt;/a&gt;",
  "parsed": {
    "xt": "urn:btih:bff9e2f76c55da6cfec07acd6961be5607e09b6b",
    "dn": "Fifty Shades of Grey 2015 UNCUT HC HDRIP x264 AC3 TiTAN",
    "tr": [
      "udp://exodus.desync.com:6969",
      "udp://open.demonii.com:1337",
      "udp://tracker.coppersurfer.tk:6969",
      "udp://tracker.openbittorrent.com:80"
    ],
    "infoHash": "bff9e2f76c55da6cfec07acd6961be5607e09b6b",
    "infoHashBuffer": {
      "type": "Buffer",
      "data": [
        191,
        249,
        226,
        247,
        108,
        85,
        218,
        108,
        254,
        192,
        122,
        205,
        105,
        97,
        190,
        86,
        7,
        224,
        155,
        107
      ]
    },
    "name": "Fifty Shades of Grey 2015 UNCUT HC HDRIP x264 AC3 TiTAN",
    "announce": [
      "udp://exodus.desync.com:6969",
      "udp://open.demonii.com:1337",
      "udp://tracker.coppersurfer.tk:6969",
      "udp://tracker.openbittorrent.com:80"
    ],
    "urlList": []
  },
  "previous": 6464,
  "peers": 50,
  "last_updated": "2016-12-25T12:49:04.323Z"
}